<?xml version="1.0" encoding="UTF-8"?>
<svg version="1.1" xmlns="http://www.w3.org/2000/svg" width="506" height="196">
<path d="M0 0 C2.18602171 1.67188124 4.28199284 3.41246708 6.37109375 5.203125 C6.96019531 5.64914063 7.54929687 6.09515625 8.15625 6.5546875 C20.95445704 16.52504469 30.33855768 33.93216718 33.07373047 49.79101562 C35.85319283 72.33706495 32.71466744 94.12172452 18.55859375 112.453125 C17.1879727 114.05833311 15.79119864 115.64152415 14.37109375 117.203125 C13.59765625 118.05777344 12.82421875 118.91242188 12.02734375 119.79296875 C-2.01677583 134.5704047 -20.59715789 143.0077256 -40.93041992 143.60571289 C-64.35316992 143.87729752 -83.86511034 136.16752756 -100.9375 120.01953125 C-115.82206882 104.2064903 -123.4793027 83.35086768 -122.9140625 61.7734375 C-122.02356248 50.62388929 -119.65569159 40.27046769 -114.62890625 30.203125 C-114.14808594 29.22988281 -113.66726563 28.25664063 -113.171875 27.25390625 C-104.19468133 10.54453117 -89.44716767 -2.24745999 -71.62890625 -8.796875 C-70.5925 -9.18875 -69.55609375 -9.580625 -68.48828125 -9.984375 C-45.57026903 -17.38391258 -19.79406502 -13.5293758 0 0 Z M-68.62890625 41.203125 C-75.45401699 49.11044146 -78.27118545 57.77123089 -77.98046875 68.14453125 C-76.98988173 76.76263837 -73.43936315 85.37106612 -66.5546875 90.85546875 C-56.81453676 97.61900297 -48.29800373 99.19771606 -36.62890625 98.203125 C-28.34601984 96.53542975 -22.12256262 91.45654235 -16.62890625 85.203125 C-11.08047297 76.62595979 -9.29684397 67.68750884 -11.08984375 57.61328125 C-13.66801725 47.77072478 -19.97473665 40.15522194 -28.6875 34.98046875 C-42.34086948 28.19029035 -57.51595885 30.9815905 -68.62890625 41.203125 Z " fill="#000000" transform="translate(472.62890625,12.796875)"/>
<path d="M0 0 C12.54 0 25.08 0 38 0 C38 18.15 38 36.3 38 55 C50.21 55 62.42 55 75 55 C75 36.85 75 18.7 75 0 C87.87 0 100.74 0 114 0 C114 51.48 114 102.96 114 156 C101.13 156 88.26 156 75 156 C75 137.52 75 119.04 75 100 C62.79 100 50.58 100 38 100 C38 118.48 38 136.96 38 156 C25.46 156 12.92 156 0 156 C0 104.52 0 53.04 0 0 Z " fill="#000000" transform="translate(0,0)"/>
<path d="M0 0 C66.01154212 0 66.01154212 0 85.171875 18.92578125 C97.23942128 31.58688052 103.4890071 48.40064943 103.203125 65.86328125 C101.90431598 85.91988975 93.34750644 100.8014454 78.5625 114.0625 C76.71271264 115.65070127 75.17945411 116.91027294 73 118 C74.32537672 120.93692795 75.76365476 123.01258181 78.04101562 125.28393555 C78.65505249 125.90104904 79.26908936 126.51816254 79.9017334 127.15397644 C80.56322388 127.8082814 81.22471436 128.46258636 81.90625 129.13671875 C82.58675415 129.81676468 83.2672583 130.49681061 83.96838379 131.19746399 C85.40510521 132.63116874 86.84425191 134.06244666 88.28564453 135.49145508 C90.49700587 137.68453063 92.70023114 139.8855323 94.90234375 142.08789062 C96.29900755 143.47964011 97.69612744 144.87093207 99.09375 146.26171875 C99.75524048 146.92209641 100.41673096 147.58247406 101.0982666 148.26286316 C101.71230347 148.87052017 102.32634033 149.47817719 102.95898438 150.10424805 C103.76934143 150.90888741 103.76934143 150.90888741 104.59606934 151.7297821 C105.9941224 153.108918 105.9941224 153.108918 108 154 C107.67 154.99 107.34 155.98 107 157 C100.77326703 157.10486324 94.55082483 157.14318076 88.32324219 157.12207031 C86.20889202 157.12400712 84.09447689 157.14356222 81.98046875 157.18164062 C63.45178104 157.49627872 63.45178104 157.49627872 58.44848633 153.83886719 C55.94997552 151.35154612 53.9749856 148.91082924 52 146 C50.82868581 144.65242548 49.64185695 143.31812684 48.4375 142 C47.303125 140.68 46.16875 139.36 45 138 C42.03 134.7 39.06 131.4 36 128 C35.67 137.24 35.34 146.48 35 156 C23.45 156 11.9 156 0 156 C0 104.52 0 53.04 0 0 Z M35 39 C35 55.17 35 71.34 35 88 C49.35664789 88.68463412 49.35664789 88.68463412 59.92578125 82.26953125 C65.28014049 76.71563067 67.55995515 71.10708529 68.375 63.5 C67.52545935 55.57095389 65.00923043 49.38035748 59 44 C51.03711664 38.32946185 45.23436011 39 35 39 Z " fill="#000000" transform="translate(244,0)"/>
<path d="M0 0 C37.62 0 75.24 0 114 0 C114 14.85 114 29.7 114 45 C76.38 45 38.76 45 0 45 C0 30.15 0 15.3 0 0 Z " fill="#F9A280" transform="translate(122,111)"/>
<path d="M0 0 C37.62 0 75.24 0 114 0 C114 14.85 114 29.7 114 45 C76.38 45 38.76 45 0 45 C0 30.15 0 15.3 0 0 Z " fill="#29B7B0" transform="translate(122,55)"/>
<path d="M0 0 C37.62 0 75.24 0 114 0 C114 14.52 114 29.04 114 44 C76.38 44 38.76 44 0 44 C0 29.48 0 14.96 0 0 Z " fill="#51B8E5" transform="translate(122,0)"/>
<path d="M0 0 C2.64 0 5.28 0 8 0 C10.17293296 2.24701022 11.46986838 3.88080673 13 6.5 C13.39316406 7.12003906 13.78632813 7.74007812 14.19140625 8.37890625 C15.15307314 9.90350009 16.08012154 11.44983446 17 13 C17.33 8.71 17.66 4.42 18 0 C20.64 0 23.28 0 26 0 C26 9.57 26 19.14 26 29 C18 29 18 29 16.265625 27.71484375 C15.93046875 27.12832031 15.5953125 26.54179687 15.25 25.9375 C14.86972656 25.30585938 14.48945313 24.67421875 14.09765625 24.0234375 C13.73542969 23.35570312 13.37320313 22.68796875 13 22 C12.60683594 21.33226562 12.21367187 20.66453125 11.80859375 19.9765625 C10.84590182 18.33294213 9.91926562 16.66829686 9 15 C8.67 19.62 8.34 24.24 8 29 C5.36 29 2.72 29 0 29 C0 19.43 0 9.86 0 0 Z " fill="#000000" transform="translate(198,167)"/>
<path d="M0 0 C4.25899885 1.68585371 6.00890221 3.91300981 8 8 C8 8.66 8 9.32 8 10 C5.03 10 2.06 10 -1 10 C-1 9.34 -1 8.68 -1 8 C-6.32170494 7.70437633 -6.32170494 7.70437633 -11 10 C-11.43932865 12.13488276 -11.43932865 12.13488276 -11.3125 14.5 C-11.30863281 15.2940625 -11.30476563 16.088125 -11.30078125 16.90625 C-11.18225165 19.21733036 -11.18225165 19.21733036 -9 21 C-5.54199641 21.41673207 -5.54199641 21.41673207 -2 21 C-1.01 20.01 -0.02 19.02 1 18 C-1.97 18 -4.94 18 -8 18 C-8 16.02 -8 14.04 -8 12 C-2.39 12 3.22 12 9 12 C9 21.35135135 9 21.35135135 5 26 C1.03936999 29.60057274 -3.21495659 29.50330882 -8.33984375 29.3515625 C-13.2144931 28.70733571 -15.85858881 26.45628324 -18.8125 22.6875 C-20.94904544 17.85216032 -21.52260853 13.84893971 -19.875 8.8125 C-16.09630271 -0.1727894 -8.65502157 -0.68889463 0 0 Z " fill="#000000" transform="translate(363,167)"/>
<path d="M0 0 C4.28885139 2.32628512 7.16602742 5.47904434 9 10 C9.72427331 14.63198048 9.44977085 18.11711647 7.3125 22.3125 C6.549375 23.199375 5.78625 24.08625 5 25 C4.34 25.78375 3.68 26.5675 3 27.375 C-1.85392036 30.00420686 -6.6206715 29.94636335 -12 29 C-15.90944076 26.97113506 -18.22230183 24.3187056 -20.4375 20.5625 C-21.4574184 15.91620506 -21.48303111 12.29655718 -19.8125 7.8125 C-14.90259762 0.19368596 -8.59194052 -1.26630528 0 0 Z M-10.8125 8.0625 C-12.61262685 10.99954906 -12.8206098 13.59158612 -13 17 C-12.04357118 19.79571502 -11.64701022 20.67649489 -9 22 C-5.45768939 22.38503376 -3.63742658 22.41935959 -0.625 20.4375 C1.62340519 17.06489221 1.56783945 14.97487617 1 11 C-0.47993156 8.43661311 -0.47993156 8.43661311 -3 7 C-6.14454533 6.55077924 -8.04411529 6.43965379 -10.8125 8.0625 Z " fill="#000000" transform="translate(432,167)"/>
<path d="M0 0 C2.536875 -0.061875 5.07375 -0.12375 7.6875 -0.1875 C8.47729248 -0.21481201 9.26708496 -0.24212402 10.08081055 -0.27026367 C14.61476924 -0.32357739 17.43712454 0.16424198 21 3 C23.51250583 6.76875875 23.53016086 8.53150134 23 13 C21.54006686 15.32978877 19.93880985 17.0127199 18 19 C18.3609375 19.55429688 18.721875 20.10859375 19.09375 20.6796875 C19.5578125 21.40414062 20.021875 22.12859375 20.5 22.875 C21.19609375 23.95394531 21.19609375 23.95394531 21.90625 25.0546875 C23 27 23 27 23 29 C20.03 29 17.06 29 14 29 C12.35 26.03 10.7 23.06 9 20 C8.67 22.97 8.34 25.94 8 29 C5.36 29 2.72 29 0 29 C0 19.43 0 9.86 0 0 Z M8 7 C8 8.98 8 10.96 8 13 C11.465 12.505 11.465 12.505 15 12 C14.67 10.35 14.34 8.7 14 7 C12.02 7 10.04 7 8 7 Z " fill="#000000" transform="translate(380,167)"/>
<path d="M0 0 C2.51625 -0.103125 5.0325 -0.20625 7.625 -0.3125 C8.79603271 -0.38078003 8.79603271 -0.38078003 9.99072266 -0.45043945 C13.93761311 -0.5280947 16.33597278 -0.15368824 19.4609375 2.36328125 C22.12634673 5.13120622 23 6.20192754 23 10 C22.3125 12.6875 22.3125 12.6875 21 15 C19.02 15.99 19.02 15.99 17 17 C18.98 20.96 20.96 24.92 23 29 C17.12861503 29.70106089 17.12861503 29.70106089 14 29 C11.65111994 26.65111994 10.22835245 24.07396744 9 21 C9 20.34 9 19.68 9 19 C8.34 19 7.68 19 7 19 C7 22.3 7 25.6 7 29 C4.69 29 2.38 29 0 29 C0 19.43 0 9.86 0 0 Z M7 7 C7 8.98 7 10.96 7 13 C10.465 12.505 10.465 12.505 14 12 C14 10.35 14 8.7 14 7 C11.69 7 9.38 7 7 7 Z " fill="#000000" transform="translate(121,167)"/>
<path d="M0 0 C2.64 0 5.28 0 8 0 C8.33 6.93 8.66 13.86 9 21 C10.98 21 12.96 21 15 21 C15.33 14.07 15.66 7.14 16 0 C18.64 0 21.28 0 24 0 C24.08741124 3.56234428 24.14052896 7.12441108 24.1875 10.6875 C24.21263672 11.69490234 24.23777344 12.70230469 24.26367188 13.74023438 C24.35826939 23.29458366 24.35826939 23.29458366 21 27 C16.59745344 30.0622364 11.12823673 29.76733616 6 29 C3.10316132 26.7984026 1.60702769 25.21405538 0 22 C-0.08426094 20.3325394 -0.10725143 18.66174813 -0.09765625 16.9921875 C-0.09443359 16.00605469 -0.09121094 15.01992187 -0.08789062 14.00390625 C-0.07951172 12.97136719 -0.07113281 11.93882812 -0.0625 10.875 C-0.05798828 9.83472656 -0.05347656 8.79445312 -0.04882812 7.72265625 C-0.03701952 5.14838038 -0.02055075 2.57421854 0 0 Z " fill="#000000" transform="translate(450,167)"/>
<path d="M0 0 C2.55162023 2.30268167 4.09584561 4.21622963 5.5625 7.3125 C5.5625 7.9725 5.5625 8.6325 5.5625 9.3125 C0.07423243 9.58691338 -2.08539163 9.68187422 -6.4375 6.3125 C-10.10464849 6.06186268 -10.10464849 6.06186268 -13.4375 6.3125 C-13.63323608 7.74890171 -13.81877816 9.18669504 -14 10.625 C-14.15662109 11.82576172 -14.15662109 11.82576172 -14.31640625 13.05078125 C-14.58505178 15.48067116 -14.58505178 15.48067116 -13.4375 18.3125 C-10.67499964 19.69375018 -8.49018901 19.50329306 -5.4375 19.3125 C-4.7775 18.6525 -4.1175 17.9925 -3.4375 17.3125 C-1.2734375 16.8984375 -1.2734375 16.8984375 1.1875 16.6875 C2.00476563 16.61273438 2.82203125 16.53796875 3.6640625 16.4609375 C4.29054688 16.41195312 4.91703125 16.36296875 5.5625 16.3125 C4.56882169 20.58531674 3.17954393 23.68490175 -0.40234375 26.38671875 C-4.91437196 28.43921527 -9.65157124 28.22227495 -14.4375 27.3125 C-18.34474851 25.27452237 -20.65804794 22.63417958 -22.875 18.875 C-24.2011199 12.83378712 -23.71647932 8.5822882 -20.4375 3.3125 C-15.0950062 -2.86475846 -7.20555687 -3.53727337 0 0 Z " fill="#000000" transform="translate(256.4375,168.6875)"/>
<path d="M0 0 C3.10189288 -0.42575 5.91644958 -0.61361622 9 0 C11.35332056 2.14377832 12.43113984 4.16593003 14 7 C15.32 4.69 16.64 2.38 18 0 C20.97 0 23.94 0 27 0 C25.62712658 3.69876091 23.93644547 6.9514476 21.875 10.3125 C21.33617188 11.19550781 20.79734375 12.07851562 20.2421875 12.98828125 C19.83226563 13.65214844 19.42234375 14.31601563 19 15 C19.5775 15.84304687 20.155 16.68609375 20.75 17.5546875 C21.50024193 18.66129435 22.25022874 19.76807419 23 20.875 C23.7425 21.96554688 24.485 23.05609375 25.25 24.1796875 C27 27 27 27 27 29 C23.89810712 29.42575 21.08355042 29.61361622 18 29 C15.64667944 26.85622168 14.56886016 24.83406997 13 22 C11.68 24.31 10.36 26.62 9 29 C6.03 29 3.06 29 0 29 C1.64655695 25.7068861 3.35712022 22.47830221 5.125 19.25 C5.93324219 17.77273437 5.93324219 17.77273437 6.7578125 16.265625 C7.16773438 15.51796875 7.57765625 14.7703125 8 14 C7.4225 13.15695313 6.845 12.31390625 6.25 11.4453125 C5.49975807 10.33870565 4.74977126 9.23192581 4 8.125 C3.2575 7.03445312 2.515 5.94390625 1.75 4.8203125 C0 2 0 2 0 0 Z " fill="#000000" transform="translate(26,167)"/>
<path d="M0 0 C3.125 1.6875 3.125 1.6875 5 4 C5.8125 6.75 5.8125 6.75 6 9 C3.03 9 0.06 9 -3 9 C-3.33 8.34 -3.66 7.68 -4 7 C-4.99 7 -5.98 7 -7 7 C-6.34584887 10.10155668 -6.34584887 10.10155668 -4.0390625 11.0625 C-3.24242187 11.371875 -2.44578125 11.68125 -1.625 12 C1.55566015 13.24325478 3.86575999 14.2751527 6 17 C6.62025759 21.18673873 6.42684146 23.28351612 4.25 26.9375 C-0.6678992 30.05847449 -5.33408656 29.98605676 -11 29 C-14.25 26.75 -14.25 26.75 -16 24 C-16 22.68 -16 21.36 -16 20 C-13.36 20 -10.72 20 -8 20 C-7.67 20.66 -7.34 21.32 -7 22 C-5.68 22 -4.36 22 -3 22 C-3.33 21.01 -3.66 20.02 -4 19 C-6.26044171 17.86321671 -6.26044171 17.86321671 -8.9375 17 C-13.78193146 15.3271028 -13.78193146 15.3271028 -16 12 C-16.54554784 7.79148808 -16.43314903 5.70200015 -14.1875 2.0625 C-9.53476583 -0.9480927 -5.39457974 -0.87479672 0 0 Z " fill="#000000" transform="translate(314,167)"/>
<path d="M0 0 C6.27 0 12.54 0 19 0 C19 2.31 19 4.62 19 7 C15.37 7 11.74 7 8 7 C8 8.32 8 9.64 8 11 C11.3 11 14.6 11 18 11 C18 13.31 18 15.62 18 18 C14.7 18 11.4 18 8 18 C8 19.65 8 21.3 8 23 C11.63 23 15.26 23 19 23 C19 24.98 19 26.96 19 29 C12.73 29 6.46 29 0 29 C0 19.43 0 9.86 0 0 Z " fill="#000000" transform="translate(170,167)"/>
<path d="M0 0 C2.51625 -0.103125 5.0325 -0.20625 7.625 -0.3125 C8.79603271 -0.38078003 8.79603271 -0.38078003 9.99072266 -0.45043945 C13.86317893 -0.5266302 16.36087457 -0.15857699 19.484375 2.234375 C22.02955976 5.03249738 22.79129648 5.88478939 22.625 9.5625 C22.40899408 12.80798901 22.13231707 13.82357724 20.125 16.5 C15.91115372 19.47447973 13.07637385 19.081877 8 19 C8 22.3 8 25.6 8 29 C5.36 29 2.72 29 0 29 C0 19.43 0 9.86 0 0 Z M8 7 C8 8.98 8 10.96 8 13 C9.98 12.67 11.96 12.34 14 12 C14.33 11.01 14.66 10.02 15 9 C14.67 8.34 14.34 7.68 14 7 C12.02 7 10.04 7 8 7 Z " fill="#000000" transform="translate(484,167)"/>
<path d="M0 0 C2.51625 -0.103125 5.0325 -0.20625 7.625 -0.3125 C8.79603271 -0.38078003 8.79603271 -0.38078003 9.99072266 -0.45043945 C13.86402641 -0.52664688 16.35618918 -0.16050574 19.4765625 2.23828125 C22.82597253 5.90396684 22.82597253 5.90396684 22.75 9.5 C22.47661316 13.22178901 21.99415427 14.00716102 19.5 17.0625 C15.74921809 19.68266344 12.44013244 19.38277004 8 19 C8 22.3 8 25.6 8 29 C5.36 29 2.72 29 0 29 C0 19.43 0 9.86 0 0 Z M8 7 C8 8.98 8 10.96 8 13 C9.98 12.67 11.96 12.34 14 12 C14 10.35 14 8.7 14 7 C12.02 7 10.04 7 8 7 Z " fill="#000000" transform="translate(62,167)"/>
<path d="M0 0 C5.94 0 11.88 0 18 0 C18 2.31 18 4.62 18 7 C14.7 7 11.4 7 8 7 C8 8.32 8 9.64 8 11 C10.97 11 13.94 11 17 11 C17 13.31 17 15.62 17 18 C14.03 18 11.06 18 8 18 C8 19.65 8 21.3 8 23 C11.3 23 14.6 23 18 23 C18 24.98 18 26.96 18 29 C12.06 29 6.12 29 0 29 C0 19.43 0 9.86 0 0 Z " fill="#000000" transform="translate(271,167)"/>
<path d="M0 0 C5.94 0 11.88 0 18 0 C18 2.31 18 4.62 18 7 C14.7 7 11.4 7 8 7 C8 8.32 8 9.64 8 11 C10.97 11 13.94 11 17 11 C17 13.31 17 15.62 17 18 C14.03 18 11.06 18 8 18 C8 19.65 8 21.3 8 23 C11.3 23 14.6 23 18 23 C18 24.98 18 26.96 18 29 C12.06 29 6.12 29 0 29 C0 19.43 0 9.86 0 0 Z " fill="#000000" transform="translate(93,167)"/>
<path d="M0 0 C5.94 0 11.88 0 18 0 C18 2.31 18 4.62 18 7 C14.37 7 10.74 7 7 7 C7 8.32 7 9.64 7 11 C10.3 11 13.6 11 17 11 C17 13.31 17 15.62 17 18 C13.7 18 10.4 18 7 18 C7 19.65 7 21.3 7 23 C10.63 23 14.26 23 18 23 C18 24.98 18 26.96 18 29 C12.06 29 6.12 29 0 29 C0 19.43 0 9.86 0 0 Z " fill="#000000" transform="translate(0,167)"/>
<path d="M0 0 C2.64 0 5.28 0 8 0 C8 9.57 8 19.14 8 29 C5.36 29 2.72 29 0 29 C0 19.43 0 9.86 0 0 Z " fill="#000000" transform="translate(153,167)"/>
</svg>
